<svg xmlns="http://www.w3.org/2000/svg" width="200" height="168" viewBox="0 17 200 168">
  <style>
    .shape{fill:#ffc038}
    .check{fill:#fff}
    .text{fill:#3a3937}
  </style>
  <path class="shape" d="M47.7,54.6l54-31.1l54,31.1v62.3l-54,31.2l-54-31.2V54.6z"/>
  <path class="check" d="M106.7,139.9L66.4,92.2l21.9-18.5L108,96.8l40.7-42.9l20.8,19.8L106.7,139.9z"/>
  <path class="text" d="M14.1,179.8L14.1,179.8H8.9c-0.4,0-0.7-0.1-0.9-0.3c-0.2-0.2-0.3-0.5-0.3-0.9l0,0v-21.4	c0-0.4,0.1-0.7,0.3-0.9c0.2-0.2,0.5-0.3,0.9-0.3l0,0h10.1c3,0,5,0.6,6.1,1.8c1.1,1.2,1.7,2.7,1.7,4.7l0,0v4.2c0,1.9-0.6,3.5-1.7,4.7	c-1.1,1.2-3.2,1.8-6.1,1.8l0,0h-3.8v5.5c0,0.4-0.1,0.7-0.3,0.9S14.5,179.8,14.1,179.8z M18.2,162.2h-3v5h3c0.6,0,1.1-0.2,1.3-0.5	c0.2-0.3,0.3-0.7,0.3-1.1l0,0v-1.8c0-0.4-0.1-0.8-0.3-1.1C19.2,162.3,18.8,162.2,18.2,162.2L18.2,162.2z M38.6,162.9L38.6,162.9	l-1.6,5h5.2l-1.6-5c-0.1-0.2-0.2-0.3-0.3-0.4s-0.2-0.1-0.3-0.1l0,0h-0.8c-0.1,0-0.2,0-0.3,0.1C38.8,162.6,38.7,162.7,38.6,162.9z M36.7,174v4.6c0,0.4-0.1,0.7-0.3,0.9s-0.5,0.3-0.9,0.3l0,0h-4.9c-0.4,0-0.7-0.1-0.9-0.3c-0.2-0.2-0.3-0.5-0.3-0.9l0,0v-8.7	c0-0.7,0.1-1.4,0.3-2.3s0.5-1.9,1-3l0,0l2.9-7.5c0.1-0.4,0.3-0.7,0.6-0.8s0.6-0.3,1.1-0.3l0,0h8.9c0.4,0,0.8,0.1,1,0.3	s0.5,0.5,0.6,0.8l0,0l2.9,7.5c0.4,1.1,0.8,2.1,1,3c0.2,0.9,0.3,1.6,0.3,2.3l0,0v8.7c0,0.4-0.1,0.7-0.3,0.9c-0.2,0.2-0.5,0.3-0.9,0.3	l0,0h-5c-0.4,0-0.8-0.1-1-0.3c-0.2-0.2-0.3-0.5-0.3-0.9l0,0V174H36.7z M71.2,156L71.2,156h4.9c0.4,0,0.7,0.1,0.9,0.3	s0.3,0.5,0.3,0.9l0,0V170c0,0.7,0,1.4-0.1,2s-0.2,1.3-0.5,2.1l0,0l-1.7,4.5c-0.1,0.3-0.3,0.6-0.5,0.8c-0.2,0.2-0.5,0.3-0.8,0.3l0,0	h-4.4c-0.4,0-0.7-0.1-1-0.2c-0.3-0.2-0.5-0.4-0.6-0.8l0,0l-1.5-5.4c-0.1-0.2-0.1-0.4-0.2-0.4s-0.2-0.1-0.3-0.1l0,0h-0.3	c-0.1,0-0.2,0-0.3,0.1s-0.2,0.2-0.2,0.4l0,0l-1.6,5.4c-0.1,0.3-0.3,0.6-0.5,0.7c-0.2,0.2-0.5,0.2-0.9,0.2l0,0h-4.4	c-0.4,0-0.7-0.1-0.9-0.3c-0.3-0.2-0.4-0.5-0.5-0.9l0,0l-1.7-4.6c-0.3-0.8-0.5-1.5-0.5-2.1c-0.1-0.6-0.1-1.3-0.1-2l0,0v-12.8	c0-0.4,0.1-0.7,0.3-0.9c0.2-0.2,0.5-0.3,0.9-0.3l0,0h5.1c0.4,0,0.7,0.1,0.9,0.3c0.2,0.2,0.3,0.5,0.3,0.9l0,0v12.2l1.9-4.2	c0.2-0.4,0.4-0.6,0.7-0.8c0.3-0.2,0.6-0.2,1.1-0.2l0,0h1.4c0.4,0,0.8,0.1,1.1,0.2c0.3,0.2,0.5,0.4,0.7,0.8l0,0l1.9,4.2v-12.2	c0-0.4,0.1-0.7,0.3-0.9C70.5,156.1,70.8,156,71.2,156z M90.2,162.9L90.2,162.9l-1.6,5h5.2l-1.6-5c-0.1-0.2-0.2-0.3-0.3-0.4	c-0.1-0.1-0.2-0.1-0.3-0.1l0,0h-0.8c-0.1,0-0.2,0-0.3,0.1C90.4,162.6,90.3,162.7,90.2,162.9z M88.3,174v4.6c0,0.4-0.1,0.7-0.3,0.9	s-0.5,0.3-0.9,0.3l0,0h-4.9c-0.4,0-0.7-0.1-0.9-0.3s-0.3-0.5-0.3-0.9l0,0v-8.7c0-0.7,0.1-1.4,0.3-2.3s0.5-1.9,1-3l0,0l2.9-7.5	c0.1-0.4,0.3-0.7,0.6-0.8c0.3-0.2,0.6-0.3,1.1-0.3l0,0h8.9c0.4,0,0.8,0.1,1,0.3c0.3,0.2,0.5,0.5,0.6,0.8l0,0l2.9,7.5	c0.4,1.1,0.8,2.1,1,3s0.3,1.6,0.3,2.3l0,0v8.7c0,0.4-0.1,0.7-0.3,0.9c-0.2,0.2-0.5,0.3-0.9,0.3l0,0h-5c-0.4,0-0.8-0.1-1-0.3	s-0.3-0.5-0.3-0.9l0,0V174H88.3z M115.6,179.8L115.6,179.8h-5.4c-0.4,0-0.7-0.1-0.9-0.3s-0.3-0.5-0.3-0.9l0,0v-16.2h-4.9	c-0.4,0-0.7-0.1-0.9-0.3c-0.2-0.2-0.3-0.5-0.3-0.9l0,0v-4c0-0.4,0.1-0.7,0.3-0.9c0.2-0.2,0.5-0.3,0.9-0.3l0,0h17.5	c0.4,0,0.7,0.1,0.9,0.3c0.2,0.2,0.3,0.5,0.3,0.9l0,0v4c0,0.4-0.1,0.7-0.3,0.9c-0.2,0.2-0.5,0.3-0.9,0.3l0,0h-4.9v16.2	c0,0.4-0.1,0.7-0.3,0.9C116.3,179.7,116,179.8,115.6,179.8z M133.4,162.9L133.4,162.9l-1.6,5h5.2l-1.6-5c-0.1-0.2-0.2-0.3-0.3-0.4	c-0.1-0.1-0.2-0.1-0.3-0.1l0,0H134c-0.1,0-0.2,0-0.3,0.1S133.4,162.7,133.4,162.9z M131.5,174v4.6c0,0.4-0.1,0.7-0.3,0.9	s-0.5,0.3-0.9,0.3l0,0h-4.9c-0.4,0-0.7-0.1-0.9-0.3c-0.2-0.2-0.3-0.5-0.3-0.9l0,0v-8.7c0-0.7,0.1-1.4,0.3-2.3s0.5-1.9,1-3l0,0	l2.9-7.5c0.1-0.4,0.3-0.7,0.6-0.8c0.3-0.2,0.6-0.3,1.1-0.3l0,0h8.9c0.4,0,0.8,0.1,1,0.3s0.5,0.5,0.6,0.8l0,0l2.9,7.5	c0.4,1.1,0.8,2.1,1,3c0.2,0.9,0.3,1.6,0.3,2.3l0,0v8.7c0,0.4-0.1,0.7-0.3,0.9s-0.5,0.3-0.9,0.3l0,0h-5c-0.4,0-0.8-0.1-1-0.3	c-0.2-0.2-0.3-0.5-0.3-0.9l0,0V174H131.5z M159.9,179.8L159.9,179.8h-10.4c-0.4,0-0.7-0.1-0.9-0.3s-0.3-0.5-0.3-0.9l0,0v-3.9	c0-0.4,0.1-0.7,0.3-0.9c0.2-0.2,0.5-0.3,0.9-0.3l0,0h8.9c0.3,0,0.5-0.1,0.6-0.3c0.1-0.2,0.2-0.4,0.2-0.7l0,0c0-0.4-0.1-0.7-0.2-0.8	c-0.1-0.2-0.4-0.3-0.6-0.3l0,0l-5-0.7c-1.5-0.2-2.8-0.7-3.7-1.5s-1.4-2.1-1.4-4l0,0v-3.5c0-1.9,0.6-3.3,1.8-4.3c1.2-1,2.9-1.5,5-1.5	l0,0h9.3c0.4,0,0.7,0.1,0.9,0.3s0.3,0.5,0.3,0.9l0,0v3.9c0,0.4-0.1,0.7-0.3,0.9s-0.5,0.3-0.9,0.3l0,0h-7.7c-0.3,0-0.5,0.1-0.7,0.3	s-0.2,0.4-0.2,0.7l0,0c0,0.3,0.1,0.5,0.2,0.7c0.2,0.2,0.4,0.3,0.7,0.3l0,0l4.9,0.7c1.5,0.2,2.8,0.7,3.7,1.5c0.9,0.8,1.4,2.1,1.4,4	l0,0v3.5c0,1.9-0.6,3.3-1.8,4.3S162,179.8,159.9,179.8z M176.7,179.8L176.7,179.8h-5.1c-0.4,0-0.7-0.1-0.9-0.3s-0.3-0.5-0.3-0.9l0,0	v-21.4c0-0.4,0.1-0.7,0.3-0.9s0.5-0.3,0.9-0.3l0,0h5.1c0.4,0,0.7,0.1,0.9,0.3s0.3,0.5,0.3,0.9l0,0v7.6h1.3l3.4-7.7	c0.2-0.4,0.4-0.7,0.6-0.8c0.3-0.2,0.6-0.2,1-0.2l0,0h5.1c0.4,0,0.6,0.1,0.8,0.3c0.1,0.2,0.1,0.5,0,0.8l0,0l-3.4,7.7	c1.2,0.1,2.2,0.5,3,1.3c0.7,0.8,1.1,1.9,1.1,3.2l0,0v9.3c0,0.4-0.1,0.7-0.3,0.9s-0.5,0.3-0.9,0.3l0,0h-5.1c-0.4,0-0.7-0.1-0.9-0.3	s-0.3-0.5-0.3-0.9l0,0v-6.4c0-0.4-0.1-0.6-0.3-0.8c-0.2-0.2-0.4-0.3-0.8-0.3l0,0h-4.4v7.6c0,0.4-0.1,0.7-0.3,0.9	S177.1,179.8,176.7,179.8z"/>
</svg>